<svg xmlns="http://www.w3.org/2000/svg" xmlns:xlink="http://www.w3.org/1999/xlink" viewBox="0 0 24 24" version="1.1" width="24px" height="24px">
<path style=" " d="M 11 2 C 11 3.277344 10.78125 3.28125 10.28125 3.78125 C 9.78125 4.28125 9 5.277344 9 7 L 11 7 C 11 5.722656 11.21875 5.71875 11.71875 5.21875 C 12.21875 4.71875 13 3.722656 13 2 Z M 14.6875 3 C 14.6875 5.398438 13 5.398438 13 7 L 15 7 C 15 5.5 16.6875 5.699219 16.6875 3 Z M 5 8 L 5 14 C 5 16.199219 6.800781 18 9 18 L 15 18 C 16.902344 18 18.472656 16.660156 18.875 14.875 C 20.664063 14.476563 22 12.910156 22 11 L 22 10 C 22 9.476563 21.816406 8.941406 21.4375 8.5625 C 21.058594 8.183594 20.523438 8 20 8 Z M 19 10 L 20 10 L 20 11 C 20 11.808594 19.613281 12.429688 19 12.75 Z M 2 19 C 2 20.699219 3.300781 22 5 22 L 19 22 C 20.699219 22 22 20.699219 22 19 Z "/>
</svg>
