<?xml version="1.0" encoding="UTF-8"?>
<svg xmlns="http://www.w3.org/2000/svg" xmlns:xlink="http://www.w3.org/1999/xlink" viewBox="0 0 48 48" version="1.1" width="48px" height="48px">
<g id="surface1">
<path style=" fill:#ECEFF1;" d="M 2 9 L 46 9 L 46 39 L 2 39 Z "/>
<path style=" fill:#FF3D00;" d="M 36 9 L 46 9 L 46 39 L 36 39 Z "/>
<path style=" fill:#FF3D00;" d="M 2 9 L 12 9 L 12 39 L 2 39 Z "/>
<path style=" fill:#FF3D00;" d="M 23 30 L 25 30 L 25 33 L 23 33 Z "/>
<path style=" fill:#FF3D00;" d="M 33 27 L 31 26 L 33 23 L 30 23 L 29.960938 21.015625 L 27.648438 22.171875 L 28 17 L 26 18 L 24.007813 15 L 22 18 L 20 17 L 20.351563 22.144531 L 18.039063 21.015625 C 18.039063 21.015625 17.996094 22.988281 18 23 L 15 23 L 17 26 L 15 27 L 19 29 L 19 31 C 19 31 23.722656 30.742188 24 30.742188 C 24.277344 30.742188 29 31 29 31 L 29 29 Z "/>
</g>
</svg>
