<svg xmlns="http://www.w3.org/2000/svg" viewBox="0 0 30 30" width="24px" height="24px">
    <path d="M 7 3 C 5.895 3 5 3.895 5 5 L 5 12 L 25 12 L 25 5 C 25 3.895 24.105 3 23 3 L 7 3 z M 8 6 C 8.552 6 9 6.448 9 7 L 9 9 C 9 9.552 8.552 10 8 10 C 7.448 10 7 9.552 7 9 L 7 7 C 7 6.448 7.448 6 8 6 z M 5 14 L 5 25 C 5 26.105 5.895 27 7 27 C 7 27.552 7.448 28 8 28 C 8.552 28 9 27.552 9 27 L 21 27 C 21 27.552 21.448 28 22 28 C 22.552 28 23 27.552 23 27 C 24.105 27 25 26.105 25 25 L 25 14 L 5 14 z M 8 16 C 8.552 16 9 16.448 9 17 L 9 21 C 9 21.552 8.552 22 8 22 C 7.448 22 7 21.552 7 21 L 7 17 C 7 16.448 7.448 16 8 16 z"/>
</svg>
