<svg xmlns="http://www.w3.org/2000/svg" xmlns:xlink="http://www.w3.org/1999/xlink" viewBox="0 0 50 50" version="1.1" width="24px" height="24px">
  <path style=" " d="M 29 4 C 28.746094 4 28.476563 4.085938 28.28125 4.28125 C 27.5 5.0625 25.113281 8.921875 26.28125 12.34375 C 27.15625 14.90625 29.722656 16.46875 33.875 17 C 38.839844 17.632813 40.449219 18.574219 41.03125 21.21875 C 41.132813 21.6875 41.539063 22 42 22 C 42.070313 22 42.148438 21.984375 42.21875 21.96875 C 42.757813 21.851563 43.085938 21.320313 42.96875 20.78125 C 42.082031 16.761719 39.179688 15.644531 34.125 15 C 30.789063 14.574219 28.796875 13.46875 28.1875 11.6875 C 27.363281 9.273438 29.269531 6.167969 29.71875 5.71875 C 30.109375 5.328125 30.109375 4.671875 29.71875 4.28125 C 29.523438 4.085938 29.253906 4 29 4 Z M 35 5 C 34.445313 5 34 5.449219 34 6 C 34 6.550781 34.445313 7 35 7 C 37.394531 7 40.613281 7.535156 41 12.09375 C 41.042969 12.613281 41.480469 13 42 13 C 42.757813 13 45.300781 13.128906 46.40625 14.78125 C 47.25 16.042969 47.136719 18.011719 46.0625 20.625 C 45.851563 21.136719 46.113281 21.726563 46.625 21.9375 C 46.75 21.988281 46.871094 22 47 22 C 47.394531 22 47.78125 21.761719 47.9375 21.375 C 49.28125 18.105469 49.332031 15.507813 48.09375 13.65625 C 46.777344 11.695313 44.398438 11.164063 42.875 11.03125 C 42.386719 8.097656 40.566406 5 35 5 Z M 9 9 C 8.746094 9 8.476563 9.085938 8.28125 9.28125 C 7.890625 9.671875 7.890625 10.328125 8.28125 10.71875 L 44.28125 46.71875 C 44.476563 46.914063 44.742188 47 45 47 C 45.257813 47 45.523438 46.914063 45.71875 46.71875 C 46.109375 46.328125 46.109375 45.671875 45.71875 45.28125 L 34.4375 34 L 38 34 L 38 24 L 24.4375 24 L 9.71875 9.28125 C 9.523438 9.085938 9.253906 9 9 9 Z M 1 24 C 0.445313 24 0 24.445313 0 25 L 0 33 C 0 33.554688 0.445313 34 1 34 L 28 34 L 18 24 Z M 40 24 L 40 34 L 43 34 L 43 24 Z M 45 24 L 45 34 L 49 34 C 49.554688 34 50 33.554688 50 33 L 50 25 C 50 24.449219 49.554688 24 49 24 Z "/>
</svg>
