<svg xmlns="http://www.w3.org/2000/svg" xmlns:xlink="http://www.w3.org/1999/xlink" viewBox="0 0 24 24" version="1.1" width="24px" height="24px">
<path style="fill: #fff" d="M 20.175781 4.367188 C 19.902344 3.550781 19.140625 3 18.277344 3 L 5.722656 3 C 4.859375 3 4.097656 3.550781 3.824219 4.367188 L 2 9.839844 L 2 20 C 2 20.550781 2.449219 21 3 21 L 5 21 C 5.550781 21 6 20.550781 6 20 L 6 18 L 18 18 L 18 20 C 18 20.550781 18.449219 21 19 21 L 21 21 C 21.550781 21 22 20.550781 22 20 L 22 9.839844 Z M 5.5 15 C 4.671875 15 4 14.328125 4 13.5 C 4 12.671875 4.671875 12 5.5 12 C 6.328125 12 7 12.671875 7 13.5 C 7 14.328125 6.328125 15 5.5 15 Z M 18.5 15 C 17.671875 15 17 14.328125 17 13.5 C 17 12.671875 17.671875 12 18.5 12 C 19.328125 12 20 12.671875 20 13.5 C 20 14.328125 19.328125 15 18.5 15 Z M 4.054688 10 L 5.722656 5 L 18.28125 5 L 19.945313 10 Z "/>
</svg>
