<svg xmlns="http://www.w3.org/2000/svg" xmlns:xlink="http://www.w3.org/1999/xlink" viewBox="0 0 24 24" version="1.1" width="24px" height="24px">
<path style=" " d="M 4.5 3 C 4.238281 4.109375 3.191406 5 2 5 L 2 7 C 3.050781 7 3.898438 6.605469 4.5 6.15625 C 5.089844 6.605469 5.941406 7 7 7 C 8.058594 7 8.898438 6.605469 9.5 6.15625 C 10.101563 6.605469 10.941406 7 12 7 C 13.058594 7 13.898438 6.605469 14.5 6.15625 C 15.101563 6.605469 15.941406 7 17 7 C 18.058594 7 18.910156 6.605469 19.5 6.15625 C 20.101563 6.605469 20.949219 7 22 7 L 22 5 C 20.820313 5 19.761719 4.101563 19.5 3 C 19.21875 4.070313 18.160156 5 17 5 C 15.800781 5 14.738281 4.128906 14.5 3 C 14.261719 4.128906 13.199219 5 12 5 C 10.800781 5 9.738281 4.128906 9.5 3 C 9.261719 4.128906 8.199219 5 7 5 C 5.800781 5 4.738281 4.140625 4.5 3 Z M 4.5 10 C 4.238281 11.109375 3.191406 12 2 12 L 2 14 C 3.050781 14 3.898438 13.605469 4.5 13.15625 C 5.089844 13.605469 5.941406 14 7 14 C 8.058594 14 8.898438 13.605469 9.5 13.15625 C 10.101563 13.605469 10.941406 14 12 14 C 13.058594 14 13.898438 13.605469 14.5 13.15625 C 15.101563 13.605469 15.941406 14 17 14 C 18.058594 14 18.910156 13.605469 19.5 13.15625 C 20.101563 13.605469 20.949219 14 22 14 L 22 12 C 20.820313 12 19.761719 11.101563 19.5 10 C 19.21875 11.070313 18.160156 12 17 12 C 15.800781 12 14.738281 11.128906 14.5 10 C 14.261719 11.128906 13.199219 12 12 12 C 10.800781 12 9.738281 11.128906 9.5 10 C 9.261719 11.128906 8.199219 12 7 12 C 5.800781 12 4.738281 11.140625 4.5 10 Z M 4.5 17 C 4.238281 18.109375 3.191406 19 2 19 L 2 21 C 3.050781 21 3.898438 20.605469 4.5 20.15625 C 5.089844 20.605469 5.941406 21 7 21 C 8.058594 21 8.898438 20.605469 9.5 20.15625 C 10.101563 20.605469 10.941406 21 12 21 C 13.058594 21 13.898438 20.605469 14.5 20.15625 C 15.101563 20.605469 15.941406 21 17 21 C 18.058594 21 18.910156 20.605469 19.5 20.15625 C 20.101563 20.605469 20.949219 21 22 21 L 22 19 C 20.820313 19 19.761719 18.101563 19.5 17 C 19.21875 18.070313 18.160156 19 17 19 C 15.800781 19 14.738281 18.128906 14.5 17 C 14.261719 18.128906 13.199219 19 12 19 C 10.800781 19 9.738281 18.128906 9.5 17 C 9.261719 18.128906 8.199219 19 7 19 C 5.800781 19 4.738281 18.140625 4.5 17 Z "/>
</svg>
