<?xml version="1.0"?>
<svg xmlns="http://www.w3.org/2000/svg" viewBox="0 0 16 16" width="16px" height="16px">
    <path style="line-height:normal;text-indent:0;text-align:start;text-decoration-line:none;text-decoration-style:solid;text-decoration-color:#000;text-transform:none;block-progression:tb;isolation:auto;mix-blend-mode:normal" d="M 2.5 2 C 1.6774686 2 1 2.6774686 1 3.5 L 1 7.09375 C 0.42096623 7.3022261 0 7.8531387 0 8.5 L 0 10 L 0 10.5 L 0 12 L 0 13.5 L 0 14 L 1 14 L 1 13.5 L 1 12 L 14 12 L 14 13.5 L 14 14 L 15 14 L 15 13.5 L 15 10.5 L 15 10 L 15 8.5 C 15 7.8531387 14.579034 7.3022261 14 7.09375 L 14 3.5 C 14 2.6774686 13.322531 2 12.5 2 L 2.5 2 z M 2.5 3 L 12.5 3 C 12.781469 3 13 3.2185314 13 3.5 L 13 7 L 12 7 L 12 6.5 C 12 5.6774686 11.322531 5 10.5 5 L 8.5 5 C 8.1159078 5 7.7666173 5.1513388 7.5 5.3925781 C 7.2333827 5.1513388 6.8840922 5 6.5 5 L 4.5 5 C 3.6774686 5 3 5.6774686 3 6.5 L 3 7 L 2 7 L 2 3.5 C 2 3.2185314 2.2185314 3 2.5 3 z M 4.5 6 L 6.5 6 C 6.7814686 6 7 6.2185314 7 6.5 L 7 7 L 4 7 L 4 6.5 C 4 6.2185314 4.2185314 6 4.5 6 z M 8.5 6 L 10.5 6 C 10.781469 6 11 6.2185314 11 6.5 L 11 7 L 8 7 L 8 6.5 C 8 6.2185314 8.2185314 6 8.5 6 z M 1.5 8 L 7.5 8 L 11.5 8 L 13.5 8 C 13.781469 8 14 8.2185314 14 8.5 L 14 10 L 14 10.5 L 14 11 L 1 11 L 1 10.5 L 1 10 L 1 8.5 C 1 8.2185314 1.2185314 8 1.5 8 z" font-weight="400" font-family="sans-serif" white-space="normal" overflow="visible"/>
</svg>
