<svg xmlns="http://www.w3.org/2000/svg" viewBox="0 0 48 48" width="48" height="48"><title>dumbbell</title><g class="nc-icon-wrapper" fill="#111111"><line data-cap="butt" data-color="color-2" x1="16" y1="27" x2="32" y2="27" fill="none" stroke="#111111" stroke-miterlimit="10" stroke-width="2" stroke-linecap="round"/> <line data-cap="butt" data-color="color-2" x1="16" y1="21" x2="32" y2="21" fill="none" stroke="#111111" stroke-miterlimit="10" stroke-width="2" stroke-linecap="round"/> <path d="M13,41h0a3,3,0,0,1-3-3V10a3,3,0,0,1,3-3h0a3,3,0,0,1,3,3V38A3,3,0,0,1,13,41Z" fill="none" stroke="#111111" stroke-linecap="round" stroke-miterlimit="10" stroke-width="2" stroke-linejoin="round"/> <line data-color="color-2" x1="5" y1="15" x2="5" y2="33" fill="none" stroke="#111111" stroke-linecap="round" stroke-miterlimit="10" stroke-width="2" stroke-linejoin="round"/> <line data-color="color-2" x1="5" y1="24" x2="2" y2="24" fill="none" stroke="#111111" stroke-linecap="round" stroke-miterlimit="10" stroke-width="2" stroke-linejoin="round"/> <path d="M32,38V10a3,3,0,0,1,3-3h0a3,3,0,0,1,3,3V38a3,3,0,0,1-3,3h0A3,3,0,0,1,32,38Z" fill="none" stroke="#111111" stroke-linecap="round" stroke-miterlimit="10" stroke-width="2" stroke-linejoin="round"/> <line data-color="color-2" x1="43" y1="33" x2="43" y2="15" fill="none" stroke="#111111" stroke-linecap="round" stroke-miterlimit="10" stroke-width="2" stroke-linejoin="round"/> <line data-color="color-2" x1="46" y1="24" x2="43" y2="24" fill="none" stroke="#111111" stroke-linecap="round" stroke-miterlimit="10" stroke-width="2" stroke-linejoin="round"/></g></svg>