<svg xmlns="http://www.w3.org/2000/svg" viewBox="0 0 16 16" width="16" height="16"><title>water aerobics</title><g class="nc-icon-wrapper" fill="#111111"><g> <path d="M.5,15.5a4.862,4.862,0,0,0,3.75-1.75,4.893,4.893,0,0,0,6.893.607,4.834,4.834,0,0,0,.607-.607A4.839,4.839,0,0,0,15.5,15.5" fill="none" stroke="#111111" stroke-linecap="round" stroke-linejoin="round" data-color="color-2"/> <path d="M.5,12.5a4.862,4.862,0,0,0,3.75-1.75,4.893,4.893,0,0,0,6.893.607,4.834,4.834,0,0,0,.607-.607A4.839,4.839,0,0,0,15.5,12.5" fill="none" stroke="#111111" stroke-linecap="round" stroke-linejoin="round" data-color="color-2"/> </g> <circle cx="8" cy="2" r="1.5" fill="none" stroke="#111111" stroke-linecap="round" stroke-linejoin="round"/> <g> <circle cx="8" cy="2" r="1.5" fill="none" stroke="#111111" stroke-linecap="round" stroke-linejoin="round"/> <polyline points="14.5 1.5 10.5 5.5 5.5 5.5 1.5 1.5" fill="none" stroke="#111111" stroke-linecap="round" stroke-linejoin="round"/> <line x1="5.5" y1="5.5" x2="5.5" y2="9.5" fill="none" stroke="#111111" stroke-linecap="round" stroke-linejoin="round"/> <line x1="10.5" y1="5.5" x2="10.5" y2="9.5" fill="none" stroke="#111111" stroke-linecap="round" stroke-linejoin="round"/> </g></g></svg>